<?xml version="1.0" encoding="UTF-8"?>
<svg width="439px" height="65px" viewBox="0 0 439 65" version="1.1" xmlns="http://www.w3.org/2000/svg" xmlns:xlink="http://www.w3.org/1999/xlink">
    <!-- Generator: Sketch 47.1 (45422) - http://www.bohemiancoding.com/sketch -->
    <title>text_black</title>
    <desc>Created with Sketch.</desc>
    <defs></defs>
    <g id="TH3BUILD" stroke="none" stroke-width="1" fill="none" fill-rule="evenodd">
        <g id="MONO-TEXT-on-White" transform="translate(-81.000000, -93.000000)" fill="#323232">
            <path d="M114.019,110.994 L114.019,151.012 L114.019,151.012 C114.019,153.773424 111.780424,156.012 109.019,156.012 L103.8,156.012 L103.8,156.012 C101.038576,156.012 98.8,153.773424 98.8,151.012 L98.8,110.994 L98.8,110.994 C98.8,108.232576 96.5614237,105.994 93.8,105.994 L86,105.994 L86,105.994 C83.2385763,105.994 81,103.755424 81,100.994 L81,98 L81,98 C81,95.2385763 83.2385763,93 86,93 L126.819,93 L126.819,93 C129.580424,93 131.819,95.2385763 131.819,98 L131.819,100.994 L131.819,100.994 C131.819,103.755424 129.580424,105.994 126.819,105.994 L119.019,105.994 L119.019,105.994 C116.257576,105.994 114.019,108.232576 114.019,110.994 Z M178.544,151.012 L178.544,134.668 L178.544,134.668 C178.544,131.906576 176.305424,129.668 173.544,129.668 L158.98,129.668 L158.98,129.668 C156.218576,129.668 153.98,131.906576 153.98,134.668 L153.98,151.012 L153.98,151.012 C153.98,153.773424 151.741424,156.012 148.98,156.012 L143.761,156.012 L143.761,156.012 C140.999576,156.012 138.761,153.773424 138.761,151.012 L138.761,98 L138.761,98 C138.761,95.2385763 140.999576,93 143.761,93 L148.98,93 L148.98,93 C151.741424,93 153.98,95.2385763 153.98,98 L153.98,111.852 L153.98,111.852 C153.98,114.613424 156.218576,116.852 158.98,116.852 L173.544,116.852 L173.544,116.852 C176.305424,116.852 178.544,114.613424 178.544,111.852 L178.544,98 L178.544,98 C178.544,95.2385763 180.782576,93 183.544,93 L188.763,93 L188.763,93 C191.524424,93 193.763,95.2385763 193.763,98 L193.763,151.012 L193.763,151.012 C193.763,153.773424 191.524424,156.012 188.763,156.012 L183.544,156.012 L183.544,156.012 C180.782576,156.012 178.544,153.773424 178.544,151.012 Z M309.908,137.678 C309.908,141.119351 309.225673,144.011822 307.861,146.3555 C306.496327,148.699178 304.686678,150.582993 302.432,152.007 C300.177322,153.431007 297.611181,154.454497 294.7335,155.0775 C291.855819,155.700503 288.904015,156.012 285.878,156.012 L265.78,156.012 L265.78,156.012 C263.018576,156.012 260.78,153.773424 260.78,151.012 L260.78,98 L260.78,98 C260.78,95.2385763 263.018576,93 265.78,93 L285.878,93 C288.310679,93 290.802654,93.2521641 293.354,93.7565 C295.905346,94.2608359 298.219323,95.1211606 300.296,96.3375 C302.372677,97.5538394 304.06366,99.200323 305.369,101.277 C306.67434,103.353677 307.327,105.993984 307.327,109.198 C307.327,112.698684 306.377676,115.591155 304.479,117.8755 C302.580324,120.159845 300.088349,121.806328 297.003,122.815 C298.783009,123.289668 300.459159,123.838496 302.0315,124.6395 C303.603841,125.440504 304.968494,126.463994 306.1255,127.71 C307.282506,128.956006 308.202163,130.409658 308.8845,132.071 C309.566837,133.732342 309.908,135.601323 309.908,137.678 Z M292.642,111.245 C292.642,109.108989 291.826175,107.551505 290.1945,106.5725 C288.562825,105.593495 286.145016,105.104 282.941,105.104 L280.465,105.104 L280.465,105.104 C277.703576,105.104 275.465,107.342576 275.465,110.104 L275.465,113.098 L275.465,113.098 C275.465,115.859424 277.703576,118.098 280.465,118.098 L283.653,118.098 C286.501014,118.098 288.711159,117.519506 290.2835,116.3625 C291.855841,115.205494 292.642,113.499678 292.642,111.245 Z M294.689,136.254 C294.689,133.64332 293.71001,131.833672 291.752,130.825 C289.79399,129.816328 287.18335,129.312 283.92,129.312 L280.465,129.312 L280.465,129.312 C277.703576,129.312 275.465,131.550576 275.465,134.312 L275.465,138.73 L275.465,138.73 C275.465,141.491424 277.703576,143.73 280.465,143.73 L284.009,143.73 C285.195673,143.73 286.426827,143.626168 287.7025,143.4185 C288.978173,143.210832 290.135161,142.840003 291.1735,142.306 C292.211839,141.771997 293.05733,141.015505 293.71,140.0365 C294.36267,139.057495 294.689,137.796674 294.689,136.254 Z M373.365,132.249 C373.365,136.046352 372.727173,139.502484 371.4515,142.6175 C370.175827,145.732516 368.351345,148.402489 365.978,150.6275 C363.604655,152.852511 360.74185,154.587994 357.3895,155.834 C354.03715,157.080006 350.31402,157.703 346.22,157.703 C342.066646,157.703 338.328683,157.080006 335.006,155.834 C331.683317,154.587994 328.865012,152.852511 326.551,150.6275 C324.236988,148.402489 322.457006,145.732516 321.211,142.6175 C319.964994,139.502484 319.342,136.046352 319.342,132.249 L319.342,98 L319.342,98 C319.342,95.2385763 321.580576,93 324.342,93 L329.472,93 L329.472,93 C332.233424,93 334.472,95.2385763 334.472,98 L334.472,131.003 C334.472,132.723675 334.694498,134.355326 335.1395,135.898 C335.584502,137.440674 336.266829,138.820161 337.1865,140.0365 C338.106171,141.252839 339.322492,142.216996 340.8355,142.929 C342.348508,143.641004 344.172989,143.997 346.309,143.997 C348.445011,143.997 350.269492,143.641004 351.7825,142.929 C353.295508,142.216996 354.526662,141.252839 355.476,140.0365 C356.425338,138.820161 357.107665,137.440674 357.523,135.898 C357.938335,134.355326 358.146,132.723675 358.146,131.003 L358.146,98 L358.146,98 C358.146,95.2385763 360.384576,93 363.146,93 L368.365,93 L368.365,93 C371.126424,93 373.365,95.2385763 373.365,98 L373.365,132.249 Z M385.647,151.012 L385.647,98 L385.647,98 C385.647,95.2385763 387.885576,93 390.647,93 L395.955,93 L395.955,93 C398.716424,93 400.955,95.2385763 400.955,98 L400.955,151.012 L400.955,151.012 C400.955,153.773424 398.716424,156.012 395.955,156.012 L390.647,156.012 L390.647,156.012 C387.885576,156.012 385.647,153.773424 385.647,151.012 Z M413.949,151.012 L413.949,98 L413.949,98 C413.949,95.2385763 416.187576,93 418.949,93 L424.257,93 L424.257,93 C427.018424,93 429.257,95.2385763 429.257,98 L429.257,137.751 L429.257,137.751 C429.257,140.512424 431.495576,142.751 434.257,142.751 L448.643,142.751 L448.643,142.751 C451.404424,142.751 453.643,144.989576 453.643,147.751 L453.643,151.012 L453.643,151.012 C453.643,153.773424 451.404424,156.012 448.643,156.012 L418.949,156.012 L418.949,156.012 C416.187576,156.012 413.949,153.773424 413.949,151.012 Z M519.592,124.328 C519.592,129.846028 518.56851,134.60748 516.5215,138.6125 C514.47449,142.61752 511.77485,145.910487 508.4225,148.4915 C505.07015,151.072513 501.287688,152.971161 497.075,154.1875 C492.862312,155.403839 488.590355,156.012 484.259,156.012 L465.763,156.012 L465.763,156.012 C463.001576,156.012 460.763,153.773424 460.763,151.012 L460.763,98 L460.763,98 C460.763,95.2385763 463.001576,93 465.763,93 L483.547,93 C487.997022,93 492.387645,93.5191615 496.719,94.5575 C501.050355,95.5958385 504.906983,97.316488 508.289,99.7195 C511.671017,102.122512 514.400323,105.341313 516.477,109.376 C518.553677,113.410687 519.592,118.394637 519.592,124.328 Z M503.75,124.328 C503.75,127.828684 503.171506,130.765655 502.0145,133.139 C500.857494,135.512345 499.314843,137.410993 497.3865,138.835 C495.458157,140.259007 493.233179,141.282497 490.7115,141.9055 C488.189821,142.528503 485.564347,142.84 482.835,142.84 L480.626,142.84 C477.864576,142.84 475.626,140.601424 475.626,137.84 L475.626,110.994 C475.626,108.232576 477.864576,105.994 480.626,105.994 L483.191,105.994 C485.80168,105.994 488.338154,106.290664 490.8005,106.884 C493.262846,107.477336 495.458157,108.47116 497.3865,109.8655 C499.314843,111.25984 500.857494,113.128822 502.0145,115.4725 C503.171506,117.816178 503.75,120.767982 503.75,124.328 Z M219.767749,114.640444 L227.110255,108.076232 L227.110255,108.076232 C227.933726,107.340047 228.004486,106.075695 227.268301,105.252224 C226.888875,104.827811 226.346563,104.585204 225.777274,104.585204 L211.314566,104.585204 C208.118714,104.585204 205.527964,101.994454 205.527964,98.7986022 L205.527964,98.7986022 C205.527964,95.6027501 208.118714,93.012 211.314566,93.012 L242.380031,93.012 L242.380031,93.012 C245.455738,93.012 247.949092,95.5053534 247.949092,98.5810608 L247.949092,98.5810608 L247.949092,98.5810608 C247.949092,102.119324 246.418259,105.484548 243.751088,107.80952 L236.277169,114.324533 L236.277168,114.324531 C235.444533,115.050338 235.357933,116.313705 236.08374,117.146339 C236.35237,117.454508 236.708988,117.672954 237.10556,117.772254 C238.062861,118.01196 238.855057,118.271664 239.482146,118.551365 C241.498095,119.45054 243.269224,120.697766 244.795586,122.293077 C246.321948,123.888389 247.5315,125.802735 248.424277,128.036171 C249.317055,130.269608 249.763437,132.807566 249.763437,135.650122 C249.763437,138.376655 249.230659,140.972623 248.165085,143.438105 C247.099512,145.903587 245.573173,148.064477 243.586023,149.92084 C241.598872,151.777203 239.179769,153.25647 236.32864,154.358685 C233.477511,155.460901 230.26644,156.012 226.695329,156.012 C223.239415,156.012 220.143539,155.489906 217.407607,154.445702 C214.671676,153.401498 212.31017,151.980241 210.32302,150.18189 C208.335869,148.383538 206.780732,146.309664 205.65756,143.960204 C204.193338,140.897335 205.489298,137.227402 208.552168,135.763181 C208.997704,135.55019 209.467283,135.391664 209.95075,135.291032 L216.290685,133.971432 L216.290653,133.971282 C216.452945,133.937501 216.611893,134.04168 216.645674,134.203972 C216.645762,134.204393 216.645848,134.204813 216.645934,134.205234 C217.3593,137.707757 218.304371,140.089248 219.481145,141.349707 C221.2955,143.293087 223.671405,144.264762 226.608932,144.264762 C228.106494,144.264762 229.445641,144.018218 230.626411,143.525122 C231.807182,143.032025 232.800742,142.379407 233.607122,141.567249 C234.413502,140.75509 235.018277,139.797917 235.421467,138.695702 C235.824657,137.593486 236.026249,136.462282 236.026249,135.302055 C236.026249,132.285466 235.104686,130.052062 233.261532,128.601779 C231.418378,127.151496 229.287263,126.426365 226.868124,126.426365 C225.946547,126.426365 224.981785,126.542386 223.973811,126.774431 C222.372555,127.143055 220.713729,126.455535 219.842718,125.06225 L218.573972,123.032718 C216.876577,120.317535 217.380548,116.774606 219.767749,114.640444 Z" id="text_black"></path>
        </g>
    </g>
</svg>